<svg id="Layer_1" data-name="Layer 1" xmlns="http://www.w3.org/2000/svg" width="48" height="44" viewBox="0 0 48 44"><defs><style>.cls-1{fill:#fbca0b;fill-rule:evenodd;}</style></defs><title>brakers</title><path class="cls-1" d="M14,556.07A12,12,0,1,0,25.92,544,12,12,0,0,0,14,556.07h0Zm8,0a4,4,0,1,1,4,4,4,4,0,0,1-4-4h0Zm-6,0a2,2,0,1,1,2,2,2,2,0,0,1-2-2h0Zm7.46,9.7a2,2,0,1,1,2.45-1.4,2,2,0,0,1-2.45,1.4h0ZM34,562.37a2,2,0,1,1-.3-2.81,2,2,0,0,1,.3,2.81h0Zm-0.07-12.82a2,2,0,1,1-2.82-.26,2,2,0,0,1,2.82.26h0Zm-10.55-3.28A2,2,0,1,1,22,548.74a2,2,0,0,1,1.38-2.47h0ZM10.6,535.18l0.88-.64,6.65,9.14-0.88.64A14.44,14.44,0,0,0,12.62,562l0.46,1L2.81,567.74l-0.46-1a25.75,25.75,0,0,1,8.25-31.57h0ZM8,568.3l2.58-1.19A19.15,19.15,0,1,0,18,538.66l-1.67-2.31A21.8,21.8,0,0,1,45,544.88,22.07,22.07,0,0,1,37.18,575,21.79,21.79,0,0,1,8,568.3Z" transform="translate(0 -534)"/></svg>