<svg id="Layer_1" data-name="Layer 1" xmlns="http://www.w3.org/2000/svg" width="15" height="10" viewBox="0 0 15 10"><defs><style>.cls-1{fill:#fff;}</style></defs><title>check</title><rect class="cls-1" x="319" y="571" width="1" height="1" transform="translate(-566 329) rotate(-90)"/><rect class="cls-1" x="320" y="570" width="1" height="1" transform="translate(-564 329) rotate(-90)"/><rect class="cls-1" x="321" y="569" width="1" height="1" transform="translate(-562 329) rotate(-90)"/><rect class="cls-1" x="322" y="568" width="1" height="1" transform="translate(-560 329) rotate(-90)"/><rect class="cls-1" x="323" y="567" width="1" height="1" transform="translate(-558 329) rotate(-90)"/><rect class="cls-1" x="324" y="566" width="1" height="1" transform="translate(-556 329) rotate(-90)"/><rect class="cls-1" x="325" y="565" width="1" height="1" transform="translate(-554 329) rotate(-90)"/><rect class="cls-1" x="326" y="564" width="1" height="1" transform="translate(-552 329) rotate(-90)"/><rect class="cls-1" x="327" y="563" width="1" height="1" transform="translate(-550 329) rotate(-90)"/><rect class="cls-1" x="328" y="562" width="1" height="1" transform="translate(-548 329) rotate(-90)"/><rect class="cls-1" x="314" y="567" width="1" height="1" transform="translate(568 -309) rotate(90)"/><rect class="cls-1" x="315" y="568" width="1" height="1" transform="translate(570 -309) rotate(90)"/><rect class="cls-1" x="316" y="569" width="1" height="1" transform="translate(572 -309) rotate(90)"/><rect class="cls-1" x="317" y="570" width="1" height="1" transform="translate(574 -309) rotate(90)"/><rect class="cls-1" x="318" y="571" width="1" height="1" transform="translate(576 -309) rotate(90)"/></svg>