<svg id="Layer_1" data-name="Layer 1" xmlns="http://www.w3.org/2000/svg" width="24" height="24" viewBox="0 0 24 24"><defs><style>.cls-1{fill:#263238;}</style></defs><title>close</title><rect class="cls-1" width="1" height="1"/><rect class="cls-1" x="1" y="1" width="1" height="1"/><rect class="cls-1" x="2" y="2" width="1" height="1"/><rect class="cls-1" x="3" y="3" width="1" height="1"/><rect class="cls-1" x="4" y="4" width="1" height="1"/><rect class="cls-1" x="5" y="5" width="1" height="1"/><rect class="cls-1" x="6" y="6" width="1" height="1"/><rect class="cls-1" x="7" y="7" width="1" height="1"/><rect class="cls-1" x="8" y="8" width="1" height="1"/><rect class="cls-1" x="9" y="9" width="1" height="1"/><rect class="cls-1" x="10" y="10" width="1" height="1"/><rect class="cls-1" x="11" y="11" width="1" height="1"/><rect class="cls-1" x="12" y="12" width="1" height="1"/><rect class="cls-1" x="13" y="13" width="1" height="1"/><rect class="cls-1" x="14" y="14" width="1" height="1"/><rect class="cls-1" x="15" y="15" width="1" height="1"/><rect class="cls-1" x="16" y="16" width="1" height="1"/><rect class="cls-1" x="17" y="17" width="1" height="1"/><rect class="cls-1" x="18" y="18" width="1" height="1"/><rect class="cls-1" x="19" y="19" width="1" height="1"/><rect class="cls-1" x="20" y="20" width="1" height="1"/><rect class="cls-1" x="21" y="21" width="1" height="1"/><rect class="cls-1" x="22" y="22" width="1" height="1"/><rect class="cls-1" x="23" y="23" width="1" height="1"/><rect class="cls-1" x="172" y="532" width="1" height="1" transform="translate(196 533) rotate(180)"/><rect class="cls-1" x="171" y="533" width="1" height="1" transform="translate(194 535) rotate(180)"/><rect class="cls-1" x="170" y="534" width="1" height="1" transform="translate(192 537) rotate(180)"/><rect class="cls-1" x="169" y="535" width="1" height="1" transform="translate(190 539) rotate(180)"/><rect class="cls-1" x="168" y="536" width="1" height="1" transform="translate(188 541) rotate(180)"/><rect class="cls-1" x="167" y="537" width="1" height="1" transform="translate(186 543) rotate(180)"/><rect class="cls-1" x="166" y="538" width="1" height="1" transform="translate(184 545) rotate(180)"/><rect class="cls-1" x="165" y="539" width="1" height="1" transform="translate(182 547) rotate(180)"/><rect class="cls-1" x="164" y="540" width="1" height="1" transform="translate(180 549) rotate(180)"/><rect class="cls-1" x="163" y="541" width="1" height="1" transform="translate(178 551) rotate(180)"/><rect class="cls-1" x="162" y="542" width="1" height="1" transform="translate(176 553) rotate(180)"/><rect class="cls-1" x="161" y="543" width="1" height="1" transform="translate(174 555) rotate(180)"/><rect class="cls-1" x="160" y="544" width="1" height="1" transform="translate(172 557) rotate(180)"/><rect class="cls-1" x="159" y="545" width="1" height="1" transform="translate(170 559) rotate(180)"/><rect class="cls-1" x="158" y="546" width="1" height="1" transform="translate(168 561) rotate(180)"/><rect class="cls-1" x="157" y="547" width="1" height="1" transform="translate(166 563) rotate(180)"/><rect class="cls-1" x="156" y="548" width="1" height="1" transform="translate(164 565) rotate(180)"/><rect class="cls-1" x="155" y="549" width="1" height="1" transform="translate(162 567) rotate(180)"/><rect class="cls-1" x="154" y="550" width="1" height="1" transform="translate(160 569) rotate(180)"/><rect class="cls-1" x="153" y="551" width="1" height="1" transform="translate(158 571) rotate(180)"/><rect class="cls-1" x="152" y="552" width="1" height="1" transform="translate(156 573) rotate(180)"/><rect class="cls-1" x="151" y="553" width="1" height="1" transform="translate(154 575) rotate(180)"/><rect class="cls-1" x="150" y="554" width="1" height="1" transform="translate(152 577) rotate(180)"/><rect class="cls-1" x="149" y="555" width="1" height="1" transform="translate(150 579) rotate(180)"/></svg>