<svg id="Layer_1" data-name="Layer 1" xmlns="http://www.w3.org/2000/svg" width="48" height="48" viewBox="0 0 48 48"><defs><style>.cls-1{fill:#fbca0b;fill-rule:evenodd;}</style></defs><title>conditioner</title><path class="cls-1" d="M24,532A24,24,0,1,1,0,556a24,24,0,0,1,24-24h0Zm0,4a20,20,0,1,0,20,20,20,20,0,0,0-20-20h0Zm-1.61,32.11V572h3.29v-3.89l3,1.72v-3.66l-3-1.77v-5.61l5,2.81,0,3.46,3.23,1.83v-3.44l3.44,1.95L39,562.6l-3.44-1.95,3-1.72-3.23-1.83-3.08,1.69-5-2.81,4.89-2.76,3.08,1.69,3.23-1.83-3-1.72,3.44-1.95-1.65-2.79-3.44,1.95v-3.44L30.61,547l0,3.46-4.89,2.76v-5.28l3-1.77V542.5l-3,1.72V540H22.39v4.22l-3-1.72v3.66l3,1.77v5.28l-4.67-2.64,0-3.46-3.23-1.83v3.44l-3.73-2.11L9.07,549.4l3.73,2.11-3,1.72L13,555.05l3.08-1.69L20.75,556,16,558.68,12.93,557l-3.23,1.83,3,1.72L9,562.64l1.65,2.79,3.73-2.11v3.43l3.23-1.83,0-3.46,4.74-2.68v5.61l-3,1.77v3.66Z" transform="translate(0 -532)"/></svg>