<svg id="Layer_1" data-name="Layer 1" xmlns="http://www.w3.org/2000/svg" width="48" height="48" viewBox="0 0 48 48"><defs><style>.cls-1,.cls-2{fill:#fbca0b;}.cls-1{fill-rule:evenodd;}</style></defs><title>cooling-system</title><path class="cls-1" d="M16.22,603.67A6.62,6.62,0,0,0,18,606.58a6.88,6.88,0,0,1-2.23.33c-2.58,0-5.26-1.67-7.93-1.67S2.67,607,0,607v-3.33c2.67,0,5.26-1.67,7.84-1.67,2.76,0,5.35,1.67,7.93,1.67h0.45ZM27,600v-6h6v-3H27v-5h6v-3H27v-5h6v-3H27v-6c0-4-6-4-6,0v31h6Zm21,14c-2.71,0-5.41-1.67-8.12-1.67S34.65,614,31.94,614s-5.23-1.67-7.94-1.67S18.59,614,15.88,614c-2.53,0-5.23-1.67-7.94-1.67S2.71,614,0,614v-3.33c2.71,0,5.23-1.67,7.94-1.67s5.41,1.67,7.94,1.67c2.71,0,5.41-1.67,8.12-1.67s5.23,1.67,7.94,1.67S37.17,609,39.88,609s5.41,1.67,8.12,1.67V614h0Zm-18-7.67a6.23,6.23,0,0,0,1.51-2.83,5.73,5.73,0,0,0,1.67.17c2.43,0,4.86-1.67,7.37-1.67s5,1.67,7.45,1.67v3.25c-2.43,0-4.94-1.67-7.45-1.67s-4.94,1.67-7.37,1.67A10.23,10.23,0,0,1,30,606.33Z" transform="translate(0 -566)"/><circle class="cls-2" cx="24" cy="36" r="5"/></svg>