<svg id="Layer_1" data-name="Layer 1" xmlns="http://www.w3.org/2000/svg" width="26.01" height="55.9" viewBox="0 0 26.01 55.9"><defs><style>.cls-1{fill:#fbca0b;}</style></defs><title>discounts-2</title><path class="cls-1" d="M12.54,32.89H12v5h0.23c1.83,0,3.77,0,3.77-2.65C16,32.89,13.94,32.89,12.54,32.89Z" transform="translate(0.01 0)"/><path class="cls-1" d="M25.12,25.09L19,17.47a17.59,17.59,0,0,0,2.51-2A15.84,15.84,0,0,0,25.19,8.4C26.74,0.77,18.43-3,13.13,2.89a14.77,14.77,0,0,0-3.81,10,5.59,5.59,0,0,1,2.68-1,13,13,0,0,1,3.14-7.43c3.45-3.84,8.35-1.51,7.34,3.48a13.46,13.46,0,0,1-3.07,5.86c-1.42,1.61-3.09,2.79-4.53,2.92a2.42,2.42,0,0,1-2.14-.89A2.17,2.17,0,0,0,11,17.89a5,5,0,0,0,3.42,1.48,5.22,5.22,0,0,0,1.06-.07A2.84,2.84,0,1,1,15.37,16,5.3,5.3,0,0,0,17,14.82c-2.47-2.89-6.65-2-9,1.09l-7,9.17A5.1,5.1,0,0,0,0,27.89v27a0.91,0.91,0,0,0,.81,1H25a0.94,0.94,0,0,0,1-1v-27A4.89,4.89,0,0,0,25.12,25.09ZM18,39.17a10.39,10.39,0,0,1-5.81,1.72h-0.3v2h6v3h-6v2H8v-2H6v-3H8v-2H6v-3H8V30.35l0.91-.17c0.35-.06.73-0.11,1.12-0.14l1.19-.09h1.14a15.72,15.72,0,0,1,3.1.28,7.49,7.49,0,0,1,2.41.9,4.31,4.31,0,0,1,1.57,1.61A5,5,0,0,1,20,35.17,4.5,4.5,0,0,1,18,39.17Z" transform="translate(0.01 0)"/></svg>