<svg id="Layer_1" data-name="Layer 1" xmlns="http://www.w3.org/2000/svg" width="26" height="55.89" viewBox="0 0 26 55.89"><defs><style>.cls-1{fill:#fbca0b;fill-rule:evenodd;}.cls-2{fill:#263238;}</style></defs><title>discounts</title><path class="cls-1" d="M13.13,549a14.77,14.77,0,0,0-3.81,10A5.59,5.59,0,0,1,12,558a13,13,0,0,1,3.14-7.43c3.45-3.84,8.35-1.51,7.34,3.48a13.46,13.46,0,0,1-3.07,5.86c-1.42,1.61-3.09,2.79-4.53,2.92a2.42,2.42,0,0,1-2.14-.89A2.17,2.17,0,0,0,11,564a5,5,0,0,0,3.42,1.48,5.22,5.22,0,0,0,1.06-.07,2.84,2.84,0,1,1-.11-3.27,5.3,5.3,0,0,0,1.6-1.21c-2.47-2.89-6.65-2-9,1.09l-7.05,9.17A5.1,5.1,0,0,0,0,574v27a0.91,0.91,0,0,0,1,1l24,0a0.94,0.94,0,0,0,1-1V574a4.89,4.89,0,0,0-.88-2.8L19,563.58a17.59,17.59,0,0,0,2.51-2,15.84,15.84,0,0,0,3.68-7.07C26.74,546.88,18.43,543.1,13.13,549Z" transform="translate(0 -546.11)"/><path class="cls-2" d="M8,589v-2H6v-3H8v-7.54l0.91-.17c0.35-.06.73-0.11,1.12-0.14l1.19-.09c0.4,0,.77,0,1.14,0a15.72,15.72,0,0,1,3.1.28,7.49,7.49,0,0,1,2.41.9,4.31,4.31,0,0,1,1.57,1.61,5,5,0,0,1,.55,2.43,4.5,4.5,0,0,1-1.95,4A10.39,10.39,0,0,1,12.23,587h-0.3v2h6v3h-6v2H8v-2H6v-3H8Zm4.54-10a5.32,5.32,0,0,0-.54,0v5h0.23c1.83,0,3.77,0,3.77-2.65C16,579,13.94,579,12.54,579Z" transform="translate(0 -546.11)"/></svg>