<svg id="Layer_1" data-name="Layer 1" xmlns="http://www.w3.org/2000/svg" width="48" height="48" viewBox="0 0 48 48"><defs><style>.cls-1{fill:#fbca0b;fill-rule:evenodd;}</style></defs><title>gear</title><path class="cls-1" d="M33.16,564.22a15.2,15.2,0,0,0,0-4.47L36,558a18.34,18.34,0,0,0-2.45-5.89l-3.26.76a15.2,15.2,0,0,0-3.16-3.15l0.76-3.26A18.33,18.33,0,0,0,22,544l-1.76,2.84a15.2,15.2,0,0,0-4.47,0L14,544a18.34,18.34,0,0,0-5.89,2.45l0.76,3.26a15.21,15.21,0,0,0-3.16,3.17l-3.26-.76A18.32,18.32,0,0,0,0,558l2.84,1.76a15.17,15.17,0,0,0,0,4.47L0,566a18.34,18.34,0,0,0,2.45,5.89l3.26-.76a15.21,15.21,0,0,0,3.17,3.16l-0.76,3.26A18.33,18.33,0,0,0,14,580l1.76-2.84a15.19,15.19,0,0,0,4.47,0L22,580a18.35,18.35,0,0,0,5.89-2.45l-0.76-3.26a15.22,15.22,0,0,0,3.16-3.16l3.26,0.76A18.33,18.33,0,0,0,36,566Zm-12.47,4.24a7,7,0,1,1,3.78-9.15A7,7,0,0,1,20.69,568.46Z" transform="translate(0 -532)"/><path class="cls-1" d="M47.8,544a9.93,9.93,0,0,0,.08-3.46l-1.78-.34a8.25,8.25,0,0,0-.87-2.26l1.09-1.45A10,10,0,0,0,43.94,534l-1.5,1a8.25,8.25,0,0,0-2.22-1L40,532.2a9.92,9.92,0,0,0-3.46-.08l-0.34,1.78a8.25,8.25,0,0,0-2.26.87l-1.45-1.09A9.94,9.94,0,0,0,30,536.06l1,1.5a8.24,8.24,0,0,0-1,2.22l-1.8.25a10,10,0,0,0-.08,3.46l1.78,0.34a8.24,8.24,0,0,0,.87,2.26l-1.09,1.45a10,10,0,0,0,2.39,2.5l1.5-1a8.27,8.27,0,0,0,2.22,1L36,551.8a9.92,9.92,0,0,0,3.46.08l0.34-1.78a8.26,8.26,0,0,0,2.26-.87l1.45,1.09A10,10,0,0,0,46,547.94l-1-1.5a8.24,8.24,0,0,0,1-2.22Zm-7,.93a4,4,0,1,1,.14-5.66A4,4,0,0,1,40.76,544.9Z" transform="translate(0 -532)"/></svg>