<svg id="Layer_1" data-name="Layer 1" xmlns="http://www.w3.org/2000/svg" width="50" height="56" viewBox="0 0 50 56"><defs><style>.cls-1{fill:#fbca0b;fill-rule:evenodd;}</style></defs><title>guarantee</title><path class="cls-1" d="M12,581h9v3H12v-3h0Zm0-7H32v3H12v-3h0Zm9,22v-3H4s-1,0-1,0V553s0,0,0,0H7v-3H2a1.78,1.78,0,0,0-2,2v42a1.78,1.78,0,0,0,2,2H21Zm15-43v24h3V552a1.78,1.78,0,0,0-2-2H32v3h4a1,1,0,0,1,0,.29V553ZM7,581h3v3H7v-3H7Zm0-7h3v3H7v-3H7Zm0-7h3v3H7v-3H7Zm0-7h3v3H7v-3Zm5,7H32v3H12v-3Zm0.06-7H32v3H12.06v-3ZM16,548H29a1.16,1.16,0,0,1,1,1l1,6a1,1,0,0,1-1,1H9a1,1,0,0,1-1-1l1-6a1.16,1.16,0,0,1,1-1h6Zm4,0a2,2,0,1,1-2,2,2,2,0,0,1,2-2h0Zm6,34v17H43v-7.33L46,589v11a1.7,1.7,0,0,1-2,2H25.38A2.47,2.47,0,0,1,23,599.3V581a1.74,1.74,0,0,1,2-2H44l-3,3H26Zm24,1v-7L35,589.87,28,584v7l7,6Zm-6-4" transform="translate(0 -546)"/><path class="cls-1" d="M20,546a4,4,0,1,0,4,4A4,4,0,0,0,20,546Zm0,6a2,2,0,1,1,2-2A2,2,0,0,1,20,552Z" transform="translate(0 -546)"/></svg>