<svg id="Layer_1" data-name="Layer 1" xmlns="http://www.w3.org/2000/svg" width="38" height="56" viewBox="0 0 38 56"><defs><style>.cls-1{fill:#ffcc05;}</style></defs><title>location-active</title><path class="cls-1" d="M19,554a17.22,17.22,0,0,1,17,16.67c0,13.07-12.62,29.12-17,34.29-4.38-5.17-17-21.2-17-34.25A17.23,17.23,0,0,1,19,554m0-2A19.26,19.26,0,0,0,0,570.67C0,587.39,19,608,19,608s19-20.62,19-37.33A19.26,19.26,0,0,0,19,552h0Z" transform="translate(0 -552)"/><path class="cls-1" d="M30.87,565.62a10.4,10.4,0,0,0-2.73-3.9,12.1,12.1,0,0,0-4-2.6A16.52,16.52,0,0,0,19,558H18.1a13.43,13.43,0,0,0-5.32,1.59,11.39,11.39,0,0,0-4.9,4.56,12.22,12.22,0,0,0-1.42,3.38,15.49,15.49,0,0,0-.47,3.9,11.1,11.1,0,0,0,.47,3.12q0.16,0.53.38,1.08a13.45,13.45,0,0,0,2.6,4.09,11.7,11.7,0,0,0,4.24,3.13,14.39,14.39,0,0,0,4.47,1.08c0.51,0,1,.07,1.55.07a12.26,12.26,0,0,0,6.23-1.72A12.92,12.92,0,0,0,32,571.14v-0.57A14.07,14.07,0,0,0,30.87,565.62Zm-4,11.65-6.54-1.42-2.26,2.37-2.37,2.45-0.61-6.61-6-3.07,6-2.7,0.93-6.62,2,2.21,2.48,2.72,6.54-1.15-3.32,5.87Z" transform="translate(0 -552)"/></svg>