<svg id="Location_pin" data-name="Location pin" xmlns="http://www.w3.org/2000/svg" width="30" height="45" viewBox="0 0 30 45"><defs><style>.cls-1{fill:#263238;}.cls-2{fill:#ffcc05;}</style></defs><title>map-nav</title><path class="cls-1" d="M15,0A15.34,15.34,0,0,0,0,15C0,28.44,15,45,15,45S30,28.43,30,15A15.34,15.34,0,0,0,15,0Z"/><path class="cls-2" d="M24.13,10.86a8,8,0,0,0-2.1-3,9.31,9.31,0,0,0-3.11-2A12.71,12.71,0,0,0,15,5H14.31a10.33,10.33,0,0,0-4.09,1.22A8.76,8.76,0,0,0,6.45,9.73a9.4,9.4,0,0,0-1.09,2.6,11.91,11.91,0,0,0-.36,3,8.54,8.54,0,0,0,.36,2.4q0.12,0.41.29,0.83a10.35,10.35,0,0,0,2,3.15,9,9,0,0,0,3.26,2.41,11.07,11.07,0,0,0,3.44.83c0.39,0,.78,0,1.19,0a9.43,9.43,0,0,0,4.79-1.32A9.94,9.94,0,0,0,25,15.11V14.67A10.82,10.82,0,0,0,24.13,10.86Zm-3,9-5.07-1.1L14.31,20.6l-1.84,1.9L12,17.38,7.32,15,12,12.91l0.72-5.13,1.56,1.71L16.2,11.6l5.07-.89L18.7,15.26Z"/></svg>