<svg id="Layer_1" data-name="Layer 1" xmlns="http://www.w3.org/2000/svg" width="48" height="34" viewBox="0 0 48 34"><defs><style>.cls-1{fill:#fbca0b;fill-rule:evenodd;}</style></defs><title>optics</title><path class="cls-1" d="M27,556.24A51.82,51.82,0,0,1,24,572a18.3,18.3,0,0,1-6,1c-10.21,0-18-7.65-18-17s7.79-17,18-17a30.91,30.91,0,0,1,6,1A51.11,51.11,0,0,1,27,556.24ZM45,547H34a3,3,0,0,1-3-3h0a3,3,0,0,1,3-3H45a3,3,0,0,1,3,3h0A3,3,0,0,1,45,547Zm0,24H34a3,3,0,0,1-3-3h0a3,3,0,0,1,3-3H45a3,3,0,0,1,3,3h0A3,3,0,0,1,45,571Zm0-12H34a3,3,0,0,1-3-3h0a3,3,0,0,1,3-3H45a3,3,0,0,1,3,3h0A3,3,0,0,1,45,559Z" transform="translate(0 -539)"/></svg>