<svg id="Layer_1" data-name="Layer 1" xmlns="http://www.w3.org/2000/svg" width="48" height="32" viewBox="0 0 48 32"><defs><style>.cls-1{fill:#fbca0b;fill-rule:evenodd;}</style></defs><title>other</title><path class="cls-1" d="M47.6,547a1.57,1.57,0,0,0-1.6-1H42l-4-4.83a2.77,2.77,0,0,0-1-.78,139.07,139.07,0,0,0-20.59,0,2.13,2.13,0,0,0-1.43.78L12,545h2.82L16,543a3,3,0,0,1,1-1,120.66,120.66,0,0,1,19,0,3,3,0,0,1,1,1l4,5c0.14,0.19.38,0.64,0,.59C33.34,548.2,26.73,548,21,548H19a13.15,13.15,0,0,1,5,10,15,15,0,0,1-1.23,6H39v1a1,1,0,0,0,1,1h6a1,1,0,0,0,1-1V553.5c0-1.33,0-2.52-1-3.52l-1-.67,2-.32a1,1,0,0,0,1-1.11ZM45,553a2.33,2.33,0,0,1-2,2H38a0.87,0.87,0,0,1-1-1v-1a1,1,0,0,1,1-1,44,44,0,0,1,5-1h1a1.06,1.06,0,0,1,1,1v1Z" transform="translate(0 -540)"/><path class="cls-1" d="M23.42,567.14l-3.1-3.28A10.78,10.78,0,1,0,15.67,568l3.14,3.32a2.22,2.22,0,0,0,3.08.12l1.41-1.28A2.11,2.11,0,0,0,23.42,567.14ZM3,558a8,8,0,1,1,8,8A8,8,0,0,1,3,558Z" transform="translate(0 -540)"/></svg>