<svg id="Layer_1" data-name="Layer 1" xmlns="http://www.w3.org/2000/svg" width="48" height="48" viewBox="0 0 48 48"><defs><style>.cls-1{fill:#fbca0b;fill-rule:evenodd;}</style></defs><title>price-tech-service</title><path class="cls-1" d="M5,566H43a5,5,0,0,1,5,5v38a5,5,0,0,1-5,5H5a5,5,0,0,1-5-5V571a5,5,0,0,1,5-5H5Zm-1,3a1,1,0,0,0-1,1v40a1,1,0,0,0,1,1H44a1,1,0,0,0,1-1V570a1,1,0,0,0-1-1H4Zm5,40h9.05c1.5-2.5,3.19-6.22,4.87-8.55,2.66-3.67,5.22-5.74,7.72-6.67a10.07,10.07,0,0,0,6.57-5c0.74-1.34,2.55-6.1,1.44-7.49-0.32-.4-0.66-0.16-1,0.19l-4.51,4.77c-1.29,1.19-3.52.5-5-.64-1.72-1.32-3.43-4.21-2-6.25a13.47,13.47,0,0,1,2.17-2.17l3-2.78c0.7-.7.17-1.11-0.38-1.27-1.25-.38-4.38.47-6.7,1.33s-4.38,1.94-4.91,4.57c-0.44,2.16,0,4.78,0,7,0,3.33-1.36,7.28-4.29,12Z" transform="translate(0 -566)"/></svg>