<svg id="Layer_1" data-name="Layer 1" xmlns="http://www.w3.org/2000/svg" width="38" height="48" viewBox="0 0 38 48"><defs><style>.cls-1{fill:#fbca0b;fill-rule:evenodd;}</style></defs><title>price-geometry</title><polygon class="cls-1" points="0 16 8 16 8 11 11 11 11 25 8 25 8 20 0 20 0 16.01 0 16"/><path class="cls-1" d="M30,611v3l8-5.5L30,603v3H13v-3l-8,5.5,8,5.5v-3H30Z" transform="translate(0 -566)"/><path class="cls-1" d="M29.93,568.32a2.83,2.83,0,0,0-2-1.6c-2.95-1-9.61-.92-12.63-0.09-1.08.3-2.34,1-2.34,2.19v29.44a2.77,2.77,0,0,0,.46,2.13c1.35,1.5,6.21,1.61,8.07,1.61s5.87-.15,7.49-1.19a1.89,1.89,0,0,0,1-1.62V568.83A1.94,1.94,0,0,0,29.93,568.32ZM20,601c-0.33,0-.85,0-1.18,0-0.77-2.52-1.6-6.11-3.82-7v-0.89c2.09,0.7,3.14,3.08,4,5.45v-2.31c-0.77-2.52-1.77-5.54-4-6.39V589c2.09,0.7,3.14,3.08,4,5.45v-2.31c-0.77-2.52-1.77-5.54-4-6.39v-0.89c2.09,0.7,3.14,3.08,4,5.45V588c-0.77-2.52-1.77-5.54-4-6.39v-0.89c2.09,0.7,3.14,3.08,4,5.45v-2.31c-0.77-2.52-1.77-5.54-4-6.39v-0.89c2.09,0.7,3.14,3.08,4,5.45v-2.31c-0.77-2.52-1.77-5.54-4-6.39v-0.89c2.09,0.7,3.14,3.08,4,5.45v-2.31c-0.77-2.52-1.77-5.54-4-6.39v-0.81c2,0.79,3.17,3.09,4,5.36v-2.31A24,24,0,0,0,17,567c0.22,0,.66,0,0.89,0A25,25,0,0,1,19,569.61V567c0.33,0,.67,0,1,0v34Zm2,0H21V567h1v34Zm6-31.81c-2.23.84-3.23,3.87-4,6.39v2.31c0.86-2.37,1.91-4.76,4-5.45v0.89c-2.23.84-3.23,3.87-4,6.39V582c0.86-2.37,1.91-4.76,4-5.45v0.89c-2.23.84-3.23,3.87-4,6.39v2.31c0.86-2.37,1.91-4.76,4-5.45v0.89c-2.23.84-3.23,3.87-4,6.39v2.31c0.86-2.37,1.91-4.76,4-5.45v0.89c-2.23.84-3.23,3.87-4,6.39v2.31c0.86-2.37,1.91-4.76,4-5.45v0.89c-2.23.84-3.23,3.87-4,6.39v2.31c0.86-2.37,1.91-4.76,4-5.45V594c-2.23.84-3.25,4.43-4,7-0.34,0-.67,0-1,0V567c0.32,0,.67,0,1,0v2.61a23.74,23.74,0,0,1,.92-2.61c0.23,0,.46,0,0.69,0A22.23,22.23,0,0,0,24,571.44v2.31c0.83-2.29,2-4.59,4-5.37h0A6.59,6.59,0,0,1,28,569.19Z" transform="translate(0 -566)"/></svg>