<svg id="Layer_1" data-name="Layer 1" xmlns="http://www.w3.org/2000/svg" width="56" height="44" viewBox="0 0 56 44"><defs><style>.cls-1{fill:#fbca0b;fill-rule:evenodd;}</style></defs><title>price-tyres</title><path class="cls-1" d="M22.16,568.66a21.3,21.3,0,0,1,4.13.54,1,1,0,0,0,1.4.38,21.17,21.17,0,0,1,3.85,1.61,1,1,0,0,0,1.25.73,21.54,21.54,0,0,1,3.31,2.57,1,1,0,0,0,1,1,21.76,21.76,0,0,1,2.54,3.34,1,1,0,0,0,.72,1.26A21.7,21.7,0,0,1,42,584a1,1,0,0,0,.37,1.41,21.91,21.91,0,0,1,.54,4.18,1,1,0,0,0,0,1.45,22,22,0,0,1-.54,4.18,1,1,0,0,0-.37,1.41,21.69,21.69,0,0,1-1.6,3.89,0.9,0.9,0,0,0-.7.58,43.17,43.17,0,0,1-4.11-3,16.27,16.27,0,0,0-14.12-24,16.23,16.23,0,0,0,0,32.47,16,16,0,0,0,12.66-6.25c-0.19-.15-0.33-0.27-0.41-0.35-0.68-.69.6-2.18,1.38-1.41,0.39,0.38,3,2.29,3.48,2.64,6.07,4.5,13.3.26,11.28-6.06-1.53-4.81-2.91-4-2.23-10.13h-2v-2.6a7.43,7.43,0,1,1,5.91,0V585H49.58c-0.78,5.62.72,5.13,2.12,9.53,2.42,7.59-5.93,13.54-13.22,9q-0.64.85-1.36,1.63a1,1,0,0,0-1,1,21.58,21.58,0,0,1-3.31,2.57,1,1,0,0,0-1.25.73,21.21,21.21,0,0,1-3.85,1.61,1,1,0,0,0-1.4.38,21.23,21.23,0,0,1-4.13.54,1,1,0,0,0-1.44,0,21.27,21.27,0,0,1-4.13-.54,1,1,0,0,0-1.4-.38,21.21,21.21,0,0,1-3.85-1.61,1,1,0,0,0-1.25-.73,21.55,21.55,0,0,1-3.31-2.57,1,1,0,0,0-1-1,21.75,21.75,0,0,1-2.54-3.34,1,1,0,0,0-.72-1.26,21.69,21.69,0,0,1-1.6-3.89,1,1,0,0,0-.37-1.41A21.9,21.9,0,0,1,0,591.06a1,1,0,0,0,0-1.45,22,22,0,0,1,.54-4.18A1,1,0,0,0,.91,584a21.65,21.65,0,0,1,1.6-3.89,1,1,0,0,0,.72-1.26,21.75,21.75,0,0,1,2.54-3.34,1,1,0,0,0,1-1,21.53,21.53,0,0,1,3.31-2.57,1,1,0,0,0,1.25-.73,21.23,21.23,0,0,1,3.85-1.61,1,1,0,0,0,1.4-.38,21.27,21.27,0,0,1,4.13-.54,1,1,0,0,0,1.44,0h0Zm26.41,1.18a5.67,5.67,0,1,0,5.61,5.67,5.64,5.64,0,0,0-5.61-5.67h0Zm0,1A4.6,4.6,0,0,0,44,575.51a4.65,4.65,0,0,0,.51,2.12,5,5,0,0,1-.09-0.95,4.38,4.38,0,0,1,4.07-4.55,3.31,3.31,0,0,1,2,.6l1.43-.38a4.54,4.54,0,0,0-3.34-1.46h0Zm1.08,2.56a2.29,2.29,0,0,0-1.77-.17,2.35,2.35,0,0,0-1.53,2.93,2.31,2.31,0,0,0,2.9,1.54,2.34,2.34,0,0,0,1.63-2.32l1.75-2.06-0.38-.62-2.6.69h0Zm-0.15,1.48a1.09,1.09,0,0,0-1.51-.35,1.12,1.12,0,0,0-.35,1.53,1.09,1.09,0,0,0,1.51.35,1.12,1.12,0,0,0,.35-1.53h0Zm-31,13.39a0.81,0.81,0,0,0-.77.57,0.82,0.82,0,0,0,0,.49,0.81,0.81,0,0,0,1,.53,0.81,0.81,0,0,0-.24-1.59h0Zm0.87,3.86a0.81,0.81,0,0,0-.77.57,0.82,0.82,0,0,0,0,.49,0.8,0.8,0,0,0,1,.53,0.81,0.81,0,0,0-.25-1.59h0Zm4.18,0a0.81,0.81,0,0,0-.77.57,0.82,0.82,0,0,0,.52,1,0.78,0.78,0,0,0,.49,0,0.81,0.81,0,0,0-.24-1.59h0Zm0.87-3.86a0.81,0.81,0,0,0-.77.57,0.82,0.82,0,0,0,.52,1,0.81,0.81,0,1,0,.24-1.59h0Zm-3-2.46a0.81,0.81,0,1,0,.77.57,0.81,0.81,0,0,0-.77-0.57h0Zm0,2.95A1.53,1.53,0,1,0,23,590.33a1.52,1.52,0,0,0-1.51-1.53h0Zm12.5-1.13a0.76,0.76,0,0,0-.91-0.21c-1.81.7-3.58,1.73-5.41,2.65a4.62,4.62,0,0,0-1.31.74,1.28,1.28,0,0,0-.33,1,4.65,4.65,0,0,0,.63,1.38c0.94,1.83,1.78,3.71,2.83,5.35a0.76,0.76,0,0,0,.86.37c3.35-1.14,5.69-8.4,3.63-11.3h0ZM23.11,577.46a0.77,0.77,0,0,0-.48.81c0.1,2,.52,4,0.82,6a4.7,4.7,0,0,0,.29,1.49,1.25,1.25,0,0,0,.86.63,4.56,4.56,0,0,0,1.49-.18c2-.34,4-0.56,5.91-1.07a0.77,0.77,0,0,0,.62-0.71c0-3.58-6.14-8.06-9.52-7h0Zm-3.32,0c-3.4-1.08-9.48,3.39-9.52,7a0.77,0.77,0,0,0,.62.71c1.87,0.51,3.9.73,5.91,1.07a4.57,4.57,0,0,0,1.49.18,1.25,1.25,0,0,0,.86-0.63,4.78,4.78,0,0,0,.29-1.49c0.3-2,.72-4.06.82-6a0.77,0.77,0,0,0-.48-0.81h0ZM9,587.67c-2.06,2.91.29,10.17,3.63,11.3a0.76,0.76,0,0,0,.86-0.37c1.06-1.64,1.89-3.52,2.83-5.35a4.65,4.65,0,0,0,.63-1.38,1.27,1.27,0,0,0-.33-1,4.61,4.61,0,0,0-1.31-.74c-1.83-.92-3.6-1.95-5.41-2.65a0.76,0.76,0,0,0-.91.21H9Zm6.61,14c2.11,2.87,9.66,2.87,11.76,0a0.77,0.77,0,0,0-.09-0.94c-1.22-1.52-2.73-2.91-4.16-4.38a4.64,4.64,0,0,0-1.1-1,1.25,1.25,0,0,0-1.06,0,4.7,4.7,0,0,0-1.1,1c-1.43,1.47-2.95,2.85-4.16,4.38a0.78,0.78,0,0,0-.09.94h0Zm5.88-26.06a14.72,14.72,0,0,0,0,29.44A14.72,14.72,0,0,0,21.44,575.61Z" transform="translate(0 -568)"/></svg>