<svg id="Layer_1" data-name="Layer 1" xmlns="http://www.w3.org/2000/svg" width="52" height="56" viewBox="0 0 52 56"><defs><style>.cls-1,.cls-2{fill:#fbca0b;}.cls-1{fill-rule:evenodd;}</style></defs><title>recreation</title><path class="cls-1" d="M22,554.63a8.73,8.73,0,0,1,1.61-5.08,19.6,19.6,0,0,1,3.06-3.18,0.87,0.87,0,0,1,1.1-.24,0.84,0.84,0,0,1,.1,1.13c-1.11,2.69-2.33,4.9.13,7.37,1.32,1.34,3,3.83,3,5.75a7.56,7.56,0,0,1-2.15,5.87c-0.7.82-3.14,2.76-4.61,2.76-0.49,0-.14-2,0.76-2.88,2.57-2.46,2.6-4.19.12-6.71-1.44-1.47-3-2.65-3.12-4.79h0ZM52,580c0,6-8,8.37-12,9a37.1,37.1,0,0,0,3-5c1.94,0,5-.62,5-5,0-1-1.12-2-3-2v-4c3.06,0,7,.88,7,7h0ZM31,596c7.23-4.38,12-14.72,12-23,0-1.5-.46-2-2-2H5c-1.42,0-2,.46-2,2,0.6,8.27,4.66,18.55,12,23H31Z" transform="translate(0 -546)"/><path class="cls-1" d="M15,558.37a6.24,6.24,0,0,1,1.25-3.76,14.85,14.85,0,0,1,2.38-2.35,0.7,0.7,0,0,1,.85-0.18,0.6,0.6,0,0,1,.08.84c-0.86,2-1.81,3.62.1,5.45,1,1,2.33,2.83,2.33,4.25A5.43,5.43,0,0,1,20.33,567c-0.54.61-2.19,2-3.33,2-0.38,0-.36-1.49.33-2.13,2-1.82,2-3.09.09-5-1.12-1.08-2.32-2-2.43-3.54h0Z" transform="translate(0 -546)"/><path class="cls-2" d="M1,52H44a1,1,0,0,1,1,1v0a3,3,0,0,1-3,3H3a3,3,0,0,1-3-3v0a1,1,0,0,1,1-1Z"/></svg>