<svg id="Layer_1" data-name="Layer 1" xmlns="http://www.w3.org/2000/svg" width="48" height="48" viewBox="0 0 48 48"><defs><style>.cls-1{fill:#fbca0b;fill-rule:evenodd;}</style></defs><title>starter</title><path class="cls-1" d="M13,535v3l20,8,2-2Zm28,26H37l-6,6v4ZM7,561l2-3L6,545H3Z" transform="translate(0 -532)"/><path class="cls-1" d="M42,544.25A8,8,0,1,0,47.75,554,8,8,0,0,0,42,544.25Zm0,8.24a2,2,0,1,1-1.44-2.43A2,2,0,0,1,41.94,552.49Z" transform="translate(0 -532)"/><path class="cls-1" d="M7.48,532.19a6,6,0,1,0,4.33,7.29A6,6,0,0,0,7.48,532.19Zm0.46,6.31a2,2,0,1,1-1.45-2.43A2,2,0,0,1,7.94,538.49Z" transform="translate(0 -532)"/><path class="cls-1" d="M18,559a9,9,0,1,0,9,9A9,9,0,0,0,18,559Zm0.61,2.43a1,1,0,1,1,.72,1.22A1,1,0,0,1,18.61,561.43Zm-6.49,9.3a1,1,0,1,1,.69-1.23A1,1,0,0,1,12.12,570.73Zm2-6.59a1,1,0,1,1,0-1.41A1,1,0,0,1,14.14,564.14Zm3.25,10.43a1,1,0,1,1-.72-1.22A1,1,0,0,1,17.39,574.57Zm3.51-5.83a3,3,0,1,1-2.17-3.65A3,3,0,0,1,20.91,568.74Zm2.39,4.51a1,1,0,1,1,0-1.41A1,1,0,0,1,23.29,573.25Zm1.13-6.06a1,1,0,1,1,.69-1.23A1,1,0,0,1,24.42,567.19Z" transform="translate(0 -532)"/><path class="cls-1" d="M21,556.37A12,12,0,1,0,29.63,571,12,12,0,0,0,21,556.37ZM18,578a10,10,0,1,1,10-10A10,10,0,0,1,18,578Z" transform="translate(0 -532)"/></svg>