<svg id="Layer_1" data-name="Layer 1" xmlns="http://www.w3.org/2000/svg" width="48" height="48" viewBox="0 0 48 48"><defs><style>.cls-1{fill:#fbca0b;fill-rule:evenodd;}</style></defs><title>steering-wheel</title><path class="cls-1" d="M295.24,571.66a6.26,6.26,0,0,0-8.49,0,6.08,6.08,0,0,0,1.42,9.64,6,6,0,0,0,7.06-1.07A6.1,6.1,0,0,0,295.24,571.66Zm-2.92,7A3,3,0,1,1,294,576,3,3,0,0,1,292.32,578.7Z" transform="translate(-267 -552)"/><path class="cls-1" d="M308,558.63a25,25,0,0,0-33.94,0,24.4,24.4,0,0,0,0,34.27,23.83,23.83,0,0,0,33.94,0A24.4,24.4,0,0,0,308,558.63ZM277.45,589.5A19.59,19.59,0,0,1,272,579.33c-0.26-1.07.35-1.36,1.14-1.33a22.92,22.92,0,0,1,4.75.23c5.46,1,7.41,3.7,8.37,9.82,0.35,2.22.57,5.08,0.76,7A19.48,19.48,0,0,1,277.45,589.5Zm9.79-6.44A8.12,8.12,0,0,1,284.67,571H273.86c-1,.05-1.31-0.33-1-1.3a19.38,19.38,0,0,1,4.64-7.57C280.94,558.6,286,557,291,557s10.06,1.6,13.55,5.13a19.38,19.38,0,0,1,4.64,7.57c0.26,1-.09,1.35-1,1.3H297.33a8.1,8.1,0,0,1-2.57,12.06A8,8,0,0,1,287.24,583.06Zm17.31,6.44A19.48,19.48,0,0,1,295,595c0.19-1.88.41-4.73,0.76-7,1-6.12,2.92-8.78,8.37-9.82a22.92,22.92,0,0,1,4.75-.23c0.8,0,1.4.26,1.14,1.33A19.59,19.59,0,0,1,304.55,589.5Z" transform="translate(-267 -552)"/></svg>